<svg xmlns="http://www.w3.org/2000/svg" viewBox="0 0 800 500" role="img" aria-label="Colourful jellybean row houses in St. John's">
  <defs>
    <linearGradient id="jb-sky" x1="0" y1="0" x2="0" y2="1">
      <stop offset="0" stop-color="#fff0f8"/>
      <stop offset="1" stop-color="#e6f8ef"/>
    </linearGradient>
  </defs>
  <rect width="800" height="500" fill="url(#jb-sky)"/>
  <circle cx="660" cy="90" r="46" fill="#ffd9ee"/>
  <!-- houses -->
  <g>
    <g>
      <rect x="40" y="200" width="130" height="250" fill="#00a859"/>
      <polygon points="40,200 105,150 170,200" fill="#007a40"/>
      <rect x="70" y="250" width="30" height="40" fill="#fff" opacity="0.9"/>
      <rect x="115" y="250" width="30" height="40" fill="#fff" opacity="0.9"/>
      <rect x="92" y="370" width="32" height="80" fill="#06351f"/>
    </g>
    <g>
      <rect x="175" y="180" width="130" height="270" fill="#ff94cb"/>
      <polygon points="175,180 240,128 305,180" fill="#f24aa3"/>
      <rect x="205" y="232" width="30" height="40" fill="#fff" opacity="0.9"/>
      <rect x="250" y="232" width="30" height="40" fill="#fff" opacity="0.9"/>
      <rect x="227" y="360" width="32" height="90" fill="#c92d80"/>
    </g>
    <g>
      <rect x="310" y="210" width="130" height="240" fill="#ffd166"/>
      <polygon points="310,210 375,160 440,210" fill="#e8a800"/>
      <rect x="340" y="258" width="30" height="40" fill="#fff" opacity="0.9"/>
      <rect x="385" y="258" width="30" height="40" fill="#fff" opacity="0.9"/>
      <rect x="362" y="372" width="32" height="78" fill="#8a6500"/>
    </g>
    <g>
      <rect x="445" y="190" width="130" height="260" fill="#4dabf7"/>
      <polygon points="445,190 510,138 575,190" fill="#1c7ed6"/>
      <rect x="475" y="242" width="30" height="40" fill="#fff" opacity="0.9"/>
      <rect x="520" y="242" width="30" height="40" fill="#fff" opacity="0.9"/>
      <rect x="497" y="362" width="32" height="88" fill="#0b4a8f"/>
    </g>
    <g>
      <rect x="580" y="215" width="130" height="235" fill="#00a859"/>
      <polygon points="580,215 645,165 710,215" fill="#007a40"/>
      <rect x="610" y="262" width="30" height="40" fill="#fff" opacity="0.9"/>
      <rect x="655" y="262" width="30" height="40" fill="#fff" opacity="0.9"/>
      <rect x="632" y="374" width="32" height="76" fill="#06351f"/>
    </g>
  </g>
  <rect x="0" y="448" width="800" height="52" fill="#d9cfc2"/>
</svg>
